#!OML:ASF X:\für Bonn\!DataBase\2005_08_11_Bastian_Final\c3d\Bastian.ASF
:FULLY-SPECIFIED
:DEGREES
31
root 1.75758 21.9531 -12.6921 538.737 -194.22 -179.731
lowerback 1.28534 -5.8924 -4.48865
upperback 0.376068 -7.90866 -1.29064
thorax 0.091982 -3.95568 1.2236
lowerneck -6.89349 -2.93108 -1.38148
upperneck 0.541279 -4.05167 8.73724
head 1.61095 -1.84975 2.91725
rclavicle -4.32357e-015 -2.38542e-015
rhumerus -45.9452 24.8218 -88.616
rradius 119.544
rwrist 2.2973
rhand -13.9239 22.2166
rfingers 7.12502
rthumb 12.2025 -7.40746
lclavicle -4.32357e-015 -2.38542e-015
lhumerus -27.7538 -14.497 67.2886
lradius 124.718
lwrist -137.62
lhand -33.2706 11.8763
lfingers 7.12502
lthumb -6.47547 41.7573
rfemur -10.1747 -7.15221 23.5983
rtibia 63.3329
rfoot 20.2269 -4.98432
rtoes -9.42101
lfemur -11.9194 2.83998 -12.8084
ltibia 66.7163
lfoot 22.1978 -3.18299
ltoes -27.9494
32
root 1.7551 22.1161 -12.5349 538.617 -193.987 -179.743
lowerback 2.3415 -5.72146 -4.35874
upperback 0.665475 -7.72889 -1.25843
thorax -0.220534 -3.86366 1.28708
lowerneck -7.30396 -2.98896 -1.53395
upperneck 0.372171 -4.11679 9.00394
head 1.6466 -1.87216 3.03063
rclavicle 3.71409e-014 2.38542e-015
rhumerus -46.3272 24.2616 -88.8568
rradius 119.378
rwrist 2.78482
rhand -14.2602 22.4294
rfingers 7.12502
rthumb 11.8782 -7.21364
lclavicle 3.71409e-014 2.38542e-015
lhumerus -28.8004 -14.375 67.8996
lradius 124.832
lwrist -137.656
lhand -33.3712 12.2454
lfingers 7.12502
lthumb -6.5726 42.1234
rfemur -11.208 -7.96284 23.2864
rtibia 64.7962
rfoot 18.8455 -6.59308
rtoes -6.22602
lfemur -13.3453 3.5942 -13.0436
ltibia 68.5026
lfoot 21.6397 -3.75145
ltoes -29.5774
33
root 1.75492 22.2749 -12.3779 538.641 -193.723 -179.716
lowerback 3.23984 -5.55524 -4.25354
upperback 0.938588 -7.544 -1.21699
thorax -0.457151 -3.76992 1.35164
lowerneck -7.7489 -3.03177 -1.6174
upperneck 0.155702 -4.16043 9.18738
head 1.66714 -1.88542 3.10344
rclavicle -2.11954e-014 -1.27222e-014
rhumerus -46.5848 23.7553 -89.0342
rradius 119.01
rwrist 3.34638
rhand -14.4805 22.4527
rfingers 7.12502
rthumb 11.6657 -7.20248
lclavicle -2.11954e-014 -1.27222e-014
lhumerus -29.8306 -14.3159 68.6185
lradius 124.586
lwrist -137.82
lhand -33.5433 12.5211
lfingers 7.12502
lthumb -6.73866 42.3938
rfemur -12.3603 -8.69171 22.949
rtibia 65.9782
rfoot 17.6254 -7.36909
rtoes -3.72903
lfemur -14.8602 4.33028 -13.3561
ltibia 70.0488
lfoot 20.978 -4.29317
ltoes -30.6994
34
root 1.7555 22.4285 -12.2181 538.807 -193.395 -179.642
lowerback 3.93178 -5.37248 -4.15497
upperback 1.21649 -7.32356 -1.18972
thorax -0.576348 -3.66056 1.37776
lowerneck -8.20232 -3.09226 -1.61632
upperneck -0.14449 -4.22466 9.25589
head 1.65643 -1.91304 3.11963
rclavicle 8.66204e-014 0
rhumerus -46.6414 23.2414 -89.0754
rradius 118.549
rwrist 3.59183
rhand -14.374 22.1322
rfingers 7.12502
rthumb 11.7685 -7.51715
lclavicle 8.66204e-014 0
lhumerus -30.7702 -14.206 69.3225
lradius 124.114
lwrist -138.17
lhand -33.7662 12.2962
lfingers 7.12502
lthumb -6.95388 42.162
rfemur -13.6321 -9.27448 22.5993
rtibia 66.9463
rfoot 16.0444 -7.28042
rtoes -4.1987
lfemur -16.4281 5.06845 -13.775
ltibia 71.3298
lfoot 20.3368 -4.79481
ltoes -31.5186
35
root 1.75633 22.5735 -12.0532 539.028 -193.071 -179.594
lowerback 4.49584 -5.20182 -4.06264
upperback 1.48062 -7.11134 -1.13611
thorax -0.633402 -3.55634 1.41804
lowerneck -8.61999 -3.15492 -1.54869
upperneck -0.487438 -4.29113 9.21466
head 1.61925 -1.94613 3.08549
rclavicle -3.78933e-014 -2.38542e-015
rhumerus -46.6354 22.7779 -89.0548
rradius 117.992
rwrist 3.81167
rhand -14.178 21.9036
rfingers 7.12502
rthumb 11.9574 -7.7349
lclavicle -3.78933e-014 -2.38542e-015
lhumerus -31.7965 -14.0645 70.0826
lradius 123.49
lwrist -138.645
lhand -33.7979 11.7468
lfingers 7.12502
lthumb -6.98449 41.6116
rfemur -14.9099 -9.76358 22.3268
rtibia 67.6783
rfoot 14.4698 -6.61788
rtoes -4.77773
lfemur -17.9498 5.79552 -14.1751
ltibia 72.363
lfoot 19.4643 -5.44197
ltoes -32.9792
36
root 1.75797 22.7145 -11.881 539.31 -192.771 -179.536
lowerback 4.91662 -5.04439 -3.95839
upperback 1.74182 -6.90797 -1.08713
thorax -0.61498 -3.4579 1.43054
lowerneck -8.92138 -3.23441 -1.46987
upperneck -0.915687 -4.37294 9.12619
head 1.53181 -1.99329 3.03313
rclavicle 2.10215e-014 1.19271e-014
rhumerus -46.6279 22.3164 -89.0039
rradius 117.184
rwrist 4.54899
rhand -14.4482 22.0371
rfingers 7.12502
rthumb 11.6969 -7.61635
lclavicle 2.10215e-014 1.19271e-014
lhumerus -32.9412 -13.9706 70.9248
lradius 122.589
lwrist -139.368
lhand -33.4989 11.829
lfingers 7.12502
lthumb -6.69589 41.7031
rfemur -16.1775 -10.1544 22.0784
rtibia 68.1823
rfoot 12.9686 -5.53473
rtoes -5.1407
lfemur -19.4457 6.48702 -14.605
ltibia 73.1458
lfoot 18.4514 -6.14638
ltoes -34.6353
37
root 1.75978 22.8402 -11.7073 539.541 -192.497 -179.483
lowerback 5.34484 -4.89503 -3.85692
upperback 2.0266 -6.71409 -1.04276
thorax -0.575605 -3.36467 1.43776
lowerneck -9.15596 -3.29968 -1.30529
upperneck -1.40075 -4.43767 8.92798
head 1.40613 -2.03768 2.92901
rclavicle -5.56597e-015 1.43125e-014
rhumerus -46.5814 21.9069 -89.0493
rradius 116.3
rwrist 4.72745
rhand -14.3632 21.8915
rfingers 7.12502
rthumb 11.7789 -7.75733
lclavicle -5.56597e-015 1.43125e-014
lhumerus -34.2234 -13.8554 71.7767
lradius 121.688
lwrist -140.423
lhand -32.9471 12.4379
lfingers 7.12502
lthumb -6.1631 42.3282
rfemur -17.2645 -10.3607 21.8569
rtibia 68.3911
rfoot 11.5651 -4.39775
rtoes -5.23056
lfemur -20.8647 7.06958 -15.0299
ltibia 73.739
lfoot 17.4969 -6.78149
ltoes -35.3958
38
root 1.76169 22.9528 -11.5348 539.753 -192.241 -179.459
lowerback 5.81483 -4.75168 -3.72144
upperback 2.26868 -6.52886 -0.997925
thorax -0.606165 -3.27351 1.4322
lowerneck -9.25083 -3.36236 -1.19646
upperneck -1.89168 -4.49467 8.80377
head 1.25794 -2.08033 2.8631
rclavicle 1.09829e-013 -3.97569e-015
rhumerus -46.609 21.5376 -89.2391
rradius 115.296
rwrist 4.5666
rhand -14.0353 21.5609
rfingers 7.12502
rthumb 12.0951 -8.06949
lclavicle 1.09829e-013 -3.97569e-015
lhumerus -35.6056 -13.6987 72.6714
lradius 120.762
lwrist -141.599
lhand -32.6075 12.1904
lfingers 7.12502
lthumb -5.83529 42.0901
rfemur -18.2549 -10.3501 21.6963
rtibia 68.3358
rfoot 10.3255 -3.49063
rtoes -5.23912
lfemur -22.2333 7.56264 -15.4268
ltibia 74.1343
lfoot 16.6351 -7.3003
ltoes -35.1819
39
root 1.76379 23.0521 -11.3616 540.007 -191.967 -179.462
lowerback 6.27105 -4.60649 -3.52362
upperback 2.45572 -6.33772 -0.970121
thorax -0.694144 -3.17712 1.37496
lowerneck -9.2425 -3.43566 -1.14462
upperneck -2.38484 -4.5617 8.79115
head 1.09763 -2.12835 2.84707
rclavicle 1.73937e-014 1.11319e-014
rhumerus -46.6124 21.1103 -89.4588
rradius 114.316
rwrist 4.34145
rhand -13.5704 21.1361
rfingers 7.12502
rthumb 12.5433 -8.46738
lclavicle 1.73937e-014 1.11319e-014
lhumerus -36.9493 -13.4009 73.5459
lradius 119.805
lwrist -142.934
lhand -32.3257 11.4142
lfingers 7.12502
lthumb -5.56315 41.3212
rfemur -19.2641 -10.111 21.605
rtibia 68.1325
rfoot 9.2024 -2.8274
rtoes -5.24816
lfemur -23.5681 8.04169 -15.8132
ltibia 74.3375
lfoot 15.7284 -7.82289
ltoes -34.6523
40
root 1.76727 23.1348 -11.188 540.289 -191.682 -179.467
lowerback 6.70826 -4.47505 -3.29766
upperback 2.61629 -6.16141 -0.948599
thorax -0.800598 -3.08723 1.29426
lowerneck -9.24855 -3.48764 -1.13345
upperneck -2.8319 -4.60068 8.83631
head 0.957082 -2.15975 2.85981
rclavicle 3.08116e-014 9.14409e-015
rhumerus -46.4942 20.7608 -89.7762
rradius 113.051
rwrist 3.67498
rhand -12.9821 20.8087
rfingers 7.12502
rthumb 13.1105 -8.75922
lclavicle 3.08116e-014 9.14409e-015
lhumerus -38.1635 -12.9795 74.3805
lradius 118.676
lwrist -144.26
lhand -31.9518 10.5667
lfingers 7.12502
lthumb -5.20223 40.4829
rfemur -20.2862 -9.64298 21.5302
rtibia 67.777
rfoot 8.24458 -2.21142
rtoes -6.00469
lfemur -24.8361 8.45065 -16.2017
ltibia 74.3617
lfoot 14.9814 -8.3041
ltoes -33.3161
41
root 1.77143 23.2073 -11.0138 540.582 -191.422 -179.507
lowerback 7.21003 -4.33964 -2.99556
upperback 2.68725 -5.97801 -0.940766
thorax -1.04342 -2.99015 1.16574
lowerneck -9.15173 -3.55592 -1.06528
upperneck -3.23831 -4.66798 8.83513
head 0.810332 -2.20784 2.84679
rclavicle 3.17062e-014 1.19271e-014
rhumerus -46.4242 20.3992 -90.0989
rradius 111.687
rwrist 2.97752
rhand -12.1722 20.115
rfingers 7.12502
rthumb 13.891 -9.40103
lclavicle 3.17062e-014 1.19271e-014
lhumerus -39.5022 -12.5049 75.17
lradius 117.457
lwrist -145.649
lhand -31.6236 9.69751
lfingers 7.12502
lthumb -4.88533 39.6212
rfemur -21.3668 -9.20132 21.4683
rtibia 67.3664
rfoot 7.46334 -1.37465
rtoes -8.47122
lfemur -26.0354 8.75614 -16.5491
ltibia 74.2305
lfoot 14.3068 -8.82496
ltoes -31.6337
42
root 1.7753 23.2677 -10.8386 540.816 -191.168 -179.553
lowerback 7.79852 -4.21893 -2.68944
upperback 2.73726 -5.81367 -0.922078
thorax -1.35213 -2.90174 1.05268
lowerneck -9.0871 -3.61866 -0.975176
upperneck -3.58967 -4.73375 8.73264
head 0.683032 -2.2545 2.79556
rclavicle 4.36332e-014 1.23246e-014
rhumerus -46.3642 20.0219 -90.3703
rradius 109.887
rwrist 3.01653
rhand -11.9873 19.9761
rfingers 7.12502
rthumb 14.0692 -9.52766
lclavicle 4.36332e-014 1.23246e-014
lhumerus -40.8481 -11.9339 75.9288
lradius 116.085
lwrist -147.049
lhand -31.3331 8.87136
lfingers 7.12502
lthumb -4.60482 38.8013
rfemur -22.332 -8.78678 21.3779
rtibia 66.8945
rfoot 6.73736 -0.499332
rtoes -11.236
lfemur -27.1109 9.03528 -16.8753
ltibia 73.9534
lfoot 13.5974 -9.45055
ltoes -30.9644
43
root 1.77965 23.3153 -10.6627 540.966 -190.931 -179.669
lowerback 8.44732 -4.10537 -2.30955
upperback 2.79283 -5.65044 -0.911137
thorax -1.69422 -2.8138 0.892546
lowerneck -9.01774 -3.6749 -0.703071
upperneck -3.94266 -4.80757 8.48281
head 0.544465 -2.30904 2.66224
rclavicle 9.42239e-014 6.75868e-015
rhumerus -46.3553 19.6068 -90.6284
rradius 108.003
rwrist 3.23492
rhand -12.0235 19.8805
rfingers 7.12502
rthumb 14.0344 -9.62569
lclavicle 9.42239e-014 6.75868e-015
lhumerus -42.1936 -11.311 76.6307
lradius 114.479
lwrist -148.366
lhand -31.0152 8.40579
lfingers 7.12502
lthumb -4.2978 38.3422
rfemur -23.1247 -8.34483 21.3237
rtibia 66.3677
rfoot 6.07182 0.227155
rtoes -13.0517
lfemur -28.0371 9.25069 -17.1013
ltibia 73.5271
lfoot 12.918 -10.0644
ltoes -30.5809
